<?xml version="1.0" encoding="utf-8"?>
<!-- Generator: Adobe Illustrator 24.1.3, SVG Export Plug-In . SVG Version: 6.00 Build 0)  -->
<svg version="1.1" id="Layer_1" xmlns="http://www.w3.org/2000/svg" xmlns:xlink="http://www.w3.org/1999/xlink" x="0px" y="0px"
	 viewBox="0 0 1000 1000" style="enable-background:new 0 0 1000 1000;" xml:space="preserve">
<style type="text/css">
	.st0{fill:#002DCC;}
</style>
<g>
	<g>
		<polygon class="st0" points="388.77,538.01 605.82,538.01 605.82,603.12 475.59,603.12 475.59,646.53 562.41,646.53 
			562.41,711.65 475.59,711.65 475.59,755.06 605.82,755.06 605.82,820.17 388.77,820.17 		"/>
		<polygon class="st0" points="338.13,538.01 251.31,538.01 164.49,538.01 77.67,538.01 77.67,614.27 164.49,614.27 164.49,820.17 
			251.31,820.17 251.31,614.27 338.13,614.27 		"/>
		<polygon class="st0" points="757.75,684.54 757.75,673.64 877.08,548.91 877.08,538.01 670.93,538.01 670.93,820.17 
			877.08,820.17 877.08,809.27 		"/>
	</g>
	<g>
		<polygon class="st0" points="77.67,190.73 294.72,190.73 294.72,255.84 164.49,255.84 164.49,299.25 251.31,299.25 251.31,364.37 
			164.49,364.37 164.49,407.78 294.72,407.78 294.72,472.89 77.67,472.89 		"/>
		<path class="st0" d="M488.85,386.07c-29.97,0-54.26-24.29-54.26-54.26c0-29.97,24.29-54.26,54.26-54.26h88.03v-86.82h-97.67
			c-77.92,0-141.08,63.16-141.08,141.08s63.16,141.08,141.08,141.08h97.67v-86.82H488.85z"/>
		<path class="st0" d="M771.02,179.83c-83.94,0-151.98,68.04-151.98,151.98s68.04,151.98,151.98,151.98S923,415.75,923,331.81
			S854.96,179.83,771.02,179.83z M771.02,396.88c-35.94,0-65.07-29.13-65.07-65.07s29.13-65.07,65.07-65.07
			c35.94,0,65.07,29.13,65.07,65.07S806.95,396.88,771.02,396.88z"/>
	</g>
</g>
</svg>
