<?xml version="1.0" standalone="no"?>
<!DOCTYPE svg PUBLIC "-//W3C//DTD SVG 20010904//EN"
 "http://www.w3.org/TR/2001/REC-SVG-20010904/DTD/svg10.dtd">
<svg version="1.0" xmlns="http://www.w3.org/2000/svg"
 width="225.000000pt" height="225.000000pt" viewBox="0 0 225.000000 225.000000"
 preserveAspectRatio="xMidYMid meet">

<g transform="translate(0.000000,225.000000) scale(0.100000,-0.100000)"
fill="#000000" stroke="none">
<path d="M1025 2156 c-222 -52 -388 -199 -456 -407 -19 -60 -24 -95 -24 -184
0 -65 6 -126 14 -150 28 -85 586 -1334 593 -1327 13 13 557 1263 573 1315 60
198 -3 436 -154 586 -70 71 -166 127 -261 155 -78 23 -212 29 -285 12z m161
-204 c12 -17 25 -51 28 -76 7 -43 7 -44 35 -33 44 16 61 4 61 -45 0 -24 -4
-58 -10 -77 l-10 -34 28 25 c31 29 73 58 83 58 4 0 10 -14 14 -31 5 -23 11
-29 23 -24 10 4 32 9 51 12 31 6 33 5 26 -18 -11 -36 -43 -97 -55 -104 -16
-10 -11 -25 9 -25 10 0 24 -7 31 -15 22 -26 -47 -98 -104 -107 -15 -3 -11 -11
24 -51 23 -26 41 -49 39 -51 -2 -2 -35 -13 -73 -25 -77 -24 -118 -26 -166 -10
-39 14 -50 3 -50 -51 0 -41 -36 -119 -62 -134 -27 -17 -47 8 -25 32 22 24 47
97 47 135 0 28 -2 29 -32 23 -96 -21 -135 -19 -192 7 -31 14 -56 30 -56 35 0
4 15 26 34 48 l34 39 -40 20 c-67 33 -91 89 -42 101 l25 7 -24 26 c-26 27 -67
91 -67 104 0 10 54 9 84 -3 22 -8 26 -7 26 8 0 10 6 26 13 35 11 16 16 15 68
-16 l57 -34 -14 33 c-8 18 -14 52 -14 75 l0 42 48 -7 47 -6 13 52 c14 59 38
101 55 95 7 -2 22 -18 33 -35z"/>
</g>
</svg>
