<?xml version="1.0" encoding="iso-8859-1"?>
<!-- Uploaded to: SVG Repo, www.svgrepo.com, Generator: SVG Repo Mixer Tools -->
<svg fill="#000000" height="800px" width="800px" version="1.1" id="Layer_1" xmlns="http://www.w3.org/2000/svg" xmlns:xlink="http://www.w3.org/1999/xlink" 
	 viewBox="0 0 512.001 512.001" xml:space="preserve">
<g>
	<g>
		<g>
			<circle cx="140.563" cy="244.134" r="9.484"/>
			<path d="M438.633,199.94c-4.556,0-8.248,3.693-8.248,8.248v19.68c0,4.555,3.692,8.248,8.248,8.248s8.248-3.693,8.248-8.248
				v-19.68C446.88,203.633,443.189,199.94,438.633,199.94z"/>
			<path d="M475.852,199.94c-4.555,0-8.248,3.693-8.248,8.248v19.68c0,4.555,3.693,8.248,8.248,8.248
				c4.556,0,8.248-3.693,8.248-8.248v-19.68C484.1,203.633,480.407,199.94,475.852,199.94z"/>
			<path d="M492.7,182.699c-3.305-12.686-8.608-24.77-15.636-35.787c6.389-23.12,5.81-53.715-10.428-70.139
				c-0.485-0.492-1.03-0.918-1.618-1.271l0.001-0.001c-11.835-7.111-28.055-8.973-45.675-5.243
				c-14.677,3.107-29.155,9.877-40.282,18.757c-2.65-0.17-5.307-0.284-7.972-0.284c-6.208,0-12.424,0.465-18.538,1.37
				c-4.527-3.998-9.433-7.653-14.534-10.782c-16.205-9.941-32.644-13.572-45.973-10.082c-0.669,0.175-1.31,0.433-1.909,0.765
				l-0.001-0.001c-12.149,6.733-20.764,19.039-24.914,35.585c-2.749,10.962-3.327,23.011-1.738,34.783H161.458
				c-34.163,0-65.162,13.798-87.725,36.11c-4.883-8.2-13.834-13.709-24.051-13.709c-6.738,0-12.927,2.395-17.76,6.377
				c-1.172-4.104-5.318-6.682-9.575-5.81C9.398,165.984,0,177.511,0,190.742c0,15.425,12.55,27.975,27.975,27.975h17.625
				c-5.79,14.377-8.984,30.066-8.984,46.491c0,30.975,11.326,60.465,31.96,83.414v87.19c0,4.555,3.692,8.248,8.248,8.248h52.891
				c2.187,0,4.284-0.869,5.833-2.416l1.833-1.834l1.833,1.834c1.547,1.547,3.644,2.416,5.833,2.416h35.674
				c2.187,0,4.284-0.869,5.833-2.416l1.833-1.834l1.835,1.834c1.546,1.546,3.644,2.415,5.832,2.415h5.125
				c4.556,0,8.248-3.693,8.248-8.248v-45.762h25.573v45.762c0,4.555,3.692,8.248,8.248,8.248h52.892c2.187,0,4.285-0.87,5.833-2.416
				l1.832-1.833l1.833,1.833c1.547,1.547,3.644,2.416,5.833,2.416h35.676c2.187,0,4.285-0.869,5.832-2.415l1.835-1.834l1.835,1.834
				c1.546,1.546,3.643,2.415,5.832,2.415h5.123c4.556,0,8.248-3.693,8.248-8.248v-92.983c0.777-0.975,1.545-1.957,2.293-2.956
				c51.177-2.837,95.404-36.388,111.916-84.93c13.063-7.139,21.944-21.008,21.944-36.915C512,203.223,504.3,190.189,492.7,182.699z
				 M23.836,201.438c-4.289-1.667-7.34-5.827-7.34-10.697c0-4.79,2.998-9.032,7.347-10.712c-1.373,3.301-2.136,6.919-2.136,10.712
				C21.705,194.529,22.466,198.14,23.836,201.438z M456.423,90.087c6.093,7.676,9.682,22.204,7.418,39.573
				c-4.289-4.702-8.926-9.108-13.912-13.129c-6.786-5.474-14.117-10.186-21.832-14.107
				C439.543,93.907,449.726,89.407,456.423,90.087z M421.854,86.542c-3.51,2.441-7.228,5.313-11.15,8.64
				c-2.429-0.807-4.877-1.555-7.352-2.214C409.426,89.972,415.716,87.846,421.854,86.542z M298.485,84.723
				c1.314-0.205,2.69-0.308,4.112-0.308c15.713,0,37.193,12.829,50.137,29.897c0.032,0.092-0.002,0.197-0.065,0.231l-49.824,27.378
				c-0.045,0.024-0.103,0.044-0.166,0.056C297.961,130.468,290.245,96.279,298.485,84.723z M38.201,190.742
				c0-6.33,5.151-11.48,11.48-11.48c6.33,0,11.48,5.15,11.48,11.48c0,0.08-0.015,0.158-0.018,0.238
				c-2.452,3.306-4.743,6.737-6.865,10.281c-1.441,0.629-3.001,0.962-4.598,0.962C43.352,202.222,38.201,197.072,38.201,190.742z
				 M192.929,421.261c-3.202-2.117-7.556-1.767-10.377,1.054l-5.249,5.25h-18.885v-37.552c1.017,0.025,2.03,0.037,3.038,0.037
				h31.472V421.261z M359.352,421.261c-3.202-2.116-7.555-1.767-10.374,1.054l-5.251,5.25h-18.886v-46.578
				c12.535-5.083,24.219-12.263,34.511-21.086V421.261z M373.62,323.546c-2.63,0.059-5.074,1.371-6.578,3.53
				c-12.973,18.614-31.855,32.972-53.171,40.426c-3.309,1.158-5.524,4.28-5.524,7.786v45.978c-1.338-0.884-2.916-1.365-4.545-1.365
				c-2.187,0-4.285,0.87-5.833,2.416l-5.248,5.249h-41.228v-45.762c0-4.555-3.692-8.248-8.248-8.248h-81.788
				c-3.456,0-6.987-0.17-10.498-0.508c-2.315-0.222-4.614,0.543-6.335,2.106c-1.72,1.563-2.701,3.78-2.701,6.104v40.005
				c-3.203-2.118-7.556-1.767-10.375,1.052l-5.249,5.25H85.071v-82.167c0-2.111-0.809-4.143-2.262-5.674
				c-19.152-20.203-29.699-46.667-29.699-74.516c0-59.742,48.604-108.347,108.346-108.347h111.98c2.538,0,4.934-1.169,6.497-3.167
				c1.564-1.999,2.119-4.607,1.507-7.07c-2.236-8.995-2.86-19.016-1.728-28.463c2.184,14.168,6.383,27.031,8.068,30.943
				c2.456,5.697,8.247,9.38,14.75,9.38c0.001,0,0.001,0,0.001,0c2.912,0,5.783-0.739,8.279-2.122l49.828-27.379
				c8.047-4.464,10.967-14.646,6.499-22.712c-0.108-0.192-0.315-0.54-0.449-0.762c-0.037-0.064-0.082-0.121-0.122-0.184
				c1.507-0.063,3.014-0.102,4.521-0.102c25.218,0,48.898,8.35,68.484,24.146c8.876,7.159,16.523,15.666,22.728,25.096
				c-1.327-0.719-2.847-1.127-4.464-1.127c-5.178,0-9.377,4.2-9.377,9.38s4.199,9.38,9.377,9.38c5.183,0,9.38-4.2,9.38-9.38
				c0-0.008-0.001-0.015-0.001-0.023c2.34,4.337,4.396,8.825,6.131,13.442c-1.118-0.089-2.246-0.148-3.386-0.148h-55.699
				c-23.179,0-42.037,18.858-42.037,42.039c0,23.18,18.857,42.037,42.037,42.037h55.699c0.11,0,0.216-0.008,0.324-0.009
				C453.048,297.614,415.801,322.585,373.62,323.546z M399.783,239.054c-6.675-4.612-11.062-12.314-11.062-21.025
				s4.386-16.413,11.062-21.025c-3.592,6.19-5.659,13.368-5.659,21.025C394.123,225.685,396.192,232.864,399.783,239.054z
				 M469.963,243.571h-33.801c-14.085,0-25.543-11.459-25.543-25.542c0-14.084,11.459-25.543,25.543-25.543h33.801
				c14.085,0,25.542,11.459,25.542,25.543C495.505,232.114,484.047,243.571,469.963,243.571z"/>
			<path d="M150.171,176.031c-13.334,0-24.181,10.847-24.181,24.18s10.847,24.18,24.181,24.18c13.333,0,24.179-10.847,24.179-24.18
				C174.351,186.878,163.505,176.031,150.171,176.031z M150.171,207.895c-4.238,0-7.686-3.448-7.686-7.685s3.449-7.685,7.686-7.685
				s7.683,3.447,7.683,7.685C157.856,204.448,154.408,207.895,150.171,207.895z"/>
			<path d="M97.565,205.217c-13.334,0-24.181,10.847-24.181,24.18s10.847,24.18,24.181,24.18c13.333,0,24.179-10.847,24.179-24.18
				S110.897,205.217,97.565,205.217z M97.565,237.081c-4.238,0-7.686-3.448-7.686-7.685c0-4.238,3.449-7.685,7.686-7.685
				c4.236,0,7.683,3.448,7.683,7.685S101.801,237.081,97.565,237.081z"/>
			<path d="M385.249,172.1c5.183,0,9.381-4.2,9.381-9.38s-4.199-9.38-9.381-9.38c-5.178,0-9.377,4.2-9.377,9.38
				C375.872,167.899,380.07,172.1,385.249,172.1z"/>
		</g>
	</g>
</g>
</svg>