<?xml version="1.0" standalone="no"?>
<!DOCTYPE svg PUBLIC "-//W3C//DTD SVG 20010904//EN"
 "http://www.w3.org/TR/2001/REC-SVG-20010904/DTD/svg10.dtd">
<svg version="1.0" xmlns="http://www.w3.org/2000/svg"
 width="225.000000pt" height="225.000000pt" viewBox="0 0 225.000000 225.000000"
 preserveAspectRatio="xMidYMid meet">

<g transform="translate(0.000000,225.000000) scale(0.100000,-0.100000)"
fill="#000000" stroke="none">
<path d="M995 2236 c-153 -31 -259 -88 -370 -200 -174 -176 -243 -414 -185
-642 46 -180 162 -449 333 -772 94 -177 310 -559 342 -604 10 -15 29 12 137
200 277 480 446 827 533 1093 68 207 59 367 -31 549 -87 175 -262 318 -449
365 -87 22 -227 27 -310 11z m310 -176 c139 -52 253 -156 314 -283 39 -82 50
-135 51 -237 0 -159 -45 -267 -159 -381 -42 -42 -96 -86 -121 -99 -170 -86
-344 -89 -510 -8 -84 40 -206 160 -244 239 -75 155 -76 351 -2 497 72 141 212
251 375 292 64 16 229 5 296 -20z"/>
<path d="M870 1749 c-135 -72 -246 -132 -248 -134 -2 -1 42 -29 97 -61 l101
-59 0 -48 c0 -45 2 -49 33 -62 108 -45 436 -45 544 0 31 13 33 17 33 62 0 39
4 51 23 62 12 8 33 21 46 30 l24 15 -6 -66 c-7 -72 3 -92 31 -64 13 12 14 19
4 28 -7 7 -12 34 -12 60 0 44 3 51 31 66 17 9 37 22 45 27 12 8 -39 40 -233
143 -137 73 -253 132 -259 132 -5 0 -119 -59 -254 -131z m338 -110 c32 -13 29
-14 -51 -11 -133 6 -226 -13 -329 -66 -5 -2 -8 1 -8 7 0 16 87 63 144 77 62
16 199 12 244 -7z m217 -69 c8 -13 -5 -13 -25 0 -13 8 -13 10 2 10 9 0 20 -4
23 -10z m-57 -140 c17 -6 32 -16 32 -20 0 -20 -113 -34 -275 -34 -166 0 -275
14 -275 35 0 27 104 38 305 35 110 -2 193 -8 213 -16z"/>
<path d="M1510 1383 c0 -10 -3 -43 -7 -73 -6 -52 -5 -54 11 -37 10 9 24 17 32
17 10 0 14 14 14 55 0 52 -1 55 -25 55 -17 0 -25 -6 -25 -17z"/>
</g>
</svg>
